<svg xmlns="http://www.w3.org/2000/svg" viewBox="0 0 24 24" fill="#D4AF37">
  <path d="M20.52 3.48A11.91 11.91 0 0012 0C5.37 0 0 5.37 0 12c0 2.12.55 4.19 1.6 6.01L0 24l6.17-1.57A11.97 11.97 0 0012 24c6.63 0 12-5.37 12-12 0-3.19-1.24-6.2-3.48-8.52zM12 22c-1.91 0-3.76-.51-5.38-1.48l-.38-.22-3.66.93.98-3.53-.25-.4A9.97 9.97 0 012 12C2 6.49 6.49 2 12 2c2.67 0 5.18 1.04 7.07 2.93A9.97 9.97 0 0122 12c0 5.51-4.49 10-10 10zm5.08-6.25c-.28-.14-1.64-.81-1.89-.9-.25-.09-.43-.14-.61.14-.18.28-.7.9-.86 1.08-.16.18-.32.2-.6.07-.28-.14-1.18-.43-2.25-1.37-.83-.74-1.39-1.65-1.55-1.93-.16-.28-.02-.43.12-.57.12-.12.28-.32.42-.48.14-.16.18-.28.28-.46.09-.18.05-.34-.02-.48-.07-.14-.61-1.47-.84-2.02-.22-.53-.45-.46-.61-.46h-.52c-.18 0-.48.07-.73.34s-.96.94-.96 2.28c0 1.34.98 2.63 1.11 2.81.14.18 1.93 2.95 4.69 4.14.66.28 1.17.45 1.57.58.66.21 1.26.18 1.73.11.53-.08 1.64-.67 1.87-1.31.23-.64.23-1.18.16-1.31-.07-.11-.25-.18-.53-.32z"/>
</svg>
